<svg width="28" height="28" viewBox="0 0 28 28" fill="none" xmlns="http://www.w3.org/2000/svg">
<path d="M13.1073 2.76953L13.2987 3.23147L13.2987 3.23147L13.1073 2.76953ZM10.1947 5.68221L10.6566 5.87355L10.6566 5.87355L10.1947 5.68221ZM13.1073 10.3808L13.2987 9.91887L13.2987 9.91887L13.1073 10.3808ZM17.8059 5.68221L17.344 5.87355L17.344 5.87355L17.8059 5.68221ZM5.68236 10.1942L5.8737 10.6562L5.8737 10.6562L5.68236 10.1942ZM2.76969 13.1069L3.23163 13.2982L3.23163 13.2982L2.76969 13.1069ZM5.68236 17.8055L5.8737 17.3436L5.8737 17.3436L5.68236 17.8055ZM10.381 13.1069L9.91902 13.2982L9.91902 13.2982L10.381 13.1069ZM20.5323 10.1942L20.7236 10.6562L20.7236 10.6562L20.5323 10.1942ZM17.6196 13.1069L18.0816 13.2982L18.0816 13.2982L17.6196 13.1069ZM20.5323 17.8055L20.7236 17.3436L20.7236 17.3436L20.5323 17.8055ZM25.2309 13.1069L24.769 13.2982L24.769 13.2982L25.2309 13.1069ZM13.1073 17.6189L13.2987 18.0808L13.2987 18.0808L13.1073 17.6189ZM10.1947 20.5316L10.6566 20.7229L10.6566 20.7229L10.1947 20.5316ZM13.1073 25.2302L13.2987 24.7682L13.2987 24.7682L13.1073 25.2302ZM17.8059 20.5316L17.344 20.7229L17.344 20.7229L17.8059 20.5316ZM11.8789 4.45385C12.2682 4.06463 12.5426 3.79061 12.7725 3.59003C12.9991 3.39241 13.1553 3.29084 13.2987 3.23147L12.916 2.30759C12.6305 2.42584 12.3802 2.60527 12.1152 2.83643C11.8535 3.06464 11.5514 3.3672 11.1718 3.74674L11.8789 4.45385ZM16.8287 3.74674C16.4492 3.3672 16.147 3.06464 15.8854 2.83643C15.6204 2.60527 15.37 2.42584 15.0846 2.30759L14.7019 3.23147C14.8452 3.29084 15.0015 3.39241 15.228 3.59003C15.458 3.79061 15.7324 4.06463 16.1216 4.45385L16.8287 3.74674ZM13.2987 3.23147C13.7479 3.0454 14.2527 3.0454 14.7019 3.23147L15.0846 2.30759C14.3903 2.02003 13.6102 2.02003 12.916 2.30759L13.2987 3.23147ZM11.879 8.69649C11.4897 8.30727 11.2157 8.03287 11.0152 7.80292C10.8175 7.57636 10.716 7.42008 10.6566 7.27676L9.73271 7.65944C9.85096 7.94492 10.0304 8.19523 10.2616 8.46025C10.4898 8.72188 10.7923 9.02406 11.1719 9.4036L11.879 8.69649ZM11.1718 3.74674C10.7923 4.12629 10.4897 4.42845 10.2615 4.69007C10.0304 4.95509 9.85096 5.20539 9.73271 5.49087L10.6566 5.87355C10.716 5.73023 10.8175 5.57395 11.0151 5.3474C11.2157 5.11746 11.4897 4.84307 11.8789 4.45385L11.1718 3.74674ZM10.6566 7.27676C10.4705 6.82754 10.4705 6.32277 10.6566 5.87355L9.73271 5.49087C9.44515 6.18511 9.44515 6.9652 9.73271 7.65944L10.6566 7.27676ZM16.1216 8.6965C15.7324 9.08572 15.458 9.35973 15.228 9.56031C15.0015 9.75793 14.8452 9.85951 14.7019 9.91887L15.0846 10.8428C15.37 10.7245 15.6204 10.5451 15.8854 10.3139C16.147 10.0857 16.4492 9.78315 16.8287 9.4036L16.1216 8.6965ZM11.1719 9.4036C11.5514 9.78314 11.8536 10.0857 12.1152 10.3139C12.3802 10.5451 12.6305 10.7245 12.916 10.8428L13.2987 9.91887C13.1554 9.85951 12.9991 9.75794 12.7725 9.56032C12.5426 9.35974 12.2682 9.08572 11.879 8.69649L11.1719 9.4036ZM14.7019 9.91887C14.2527 10.1049 13.7479 10.1049 13.2987 9.91887L12.916 10.8428C13.6102 11.1303 14.3903 11.1303 15.0846 10.8428L14.7019 9.91887ZM16.8287 9.4036C17.2083 9.02406 17.5108 8.72189 17.739 8.46026C17.9702 8.19523 18.1496 7.94492 18.2679 7.65944L17.344 7.27676C17.2846 7.42008 17.1831 7.57636 16.9854 7.80292C16.7849 8.03288 16.5108 8.30728 16.1216 8.6965L16.8287 9.4036ZM16.1216 4.45385C16.5108 4.84307 16.7849 5.11746 16.9854 5.34741C17.1831 5.57397 17.2846 5.73024 17.344 5.87355L18.2679 5.49087C18.1496 5.20538 17.9702 4.95508 17.739 4.69007C17.5108 4.42845 17.2083 4.12628 16.8287 3.74674L16.1216 4.45385ZM18.2679 7.65944C18.5554 6.9652 18.5554 6.18511 18.2679 5.49087L17.344 5.87355C17.5301 6.32277 17.5301 6.82754 17.344 7.27676L18.2679 7.65944ZM4.45397 11.8785C4.84319 11.4893 5.11759 11.2153 5.34754 11.0147C5.5741 10.8171 5.73038 10.7155 5.8737 10.6562L5.49102 9.73228C5.20554 9.85053 4.95523 10.0299 4.69021 10.2611C4.42858 10.4893 4.12641 10.7919 3.74686 11.1714L4.45397 11.8785ZM9.40375 11.1714C9.02421 10.7919 8.72203 10.4893 8.46041 10.2611C8.19539 10.0299 7.94507 9.85053 7.6596 9.73228L7.27691 10.6562C7.42023 10.7155 7.57651 10.8171 7.80307 11.0147C8.03303 11.2153 8.30743 11.4893 8.69665 11.8785L9.40375 11.1714ZM5.8737 10.6562C6.32292 10.4701 6.82769 10.4701 7.27691 10.6562L7.6596 9.73228C6.96535 9.44471 6.18527 9.44471 5.49102 9.73228L5.8737 10.6562ZM4.454 16.1212C4.06478 15.732 3.79076 15.4576 3.59019 15.2276C3.39257 15.001 3.29099 14.8448 3.23163 14.7014L2.30775 15.0841C2.426 15.3696 2.60542 15.6199 2.83658 15.8849C3.06479 16.1466 3.36735 16.4487 3.74689 16.8283L4.454 16.1212ZM3.74686 11.1714C3.36732 11.551 3.06477 11.8531 2.83657 12.1148C2.60541 12.3798 2.42599 12.6301 2.30775 12.9155L3.23163 13.2982C3.29099 13.1549 3.39256 12.9986 3.59017 12.7721C3.79074 12.5421 4.06475 12.2678 4.45397 11.8785L3.74686 11.1714ZM3.23163 14.7014C3.04555 14.2522 3.04555 13.7475 3.23163 13.2982L2.30775 12.9155C2.02018 13.6098 2.02018 14.3899 2.30775 15.0841L3.23163 14.7014ZM8.69665 16.1212C8.30743 16.5104 8.03303 16.7844 7.80307 16.985C7.57651 17.1826 7.42023 17.2842 7.27691 17.3436L7.6596 18.2674C7.94507 18.1492 8.19539 17.9698 8.46041 17.7386C8.72203 17.5104 9.02421 17.2078 9.40375 16.8283L8.69665 16.1212ZM3.74689 16.8283C4.12643 17.2078 4.4286 17.5104 4.69022 17.7386C4.95523 17.9698 5.20554 18.1492 5.49102 18.2674L5.8737 17.3436C5.73039 17.2842 5.57412 17.1826 5.34756 16.985C5.11762 16.7844 4.84322 16.5104 4.454 16.1212L3.74689 16.8283ZM7.27691 17.3436C6.82769 17.5296 6.32292 17.5296 5.8737 17.3436L5.49102 18.2674C6.18527 18.555 6.96535 18.555 7.6596 18.2674L7.27691 17.3436ZM9.40375 16.8283C9.7833 16.4487 10.0859 16.1466 10.3141 15.8849C10.5452 15.6199 10.7247 15.3696 10.8429 15.0841L9.91902 14.7014C9.85966 14.8448 9.75808 15.001 9.56046 15.2276C9.35988 15.4576 9.08587 15.732 8.69665 16.1212L9.40375 16.8283ZM8.69665 11.8785C9.08587 12.2678 9.35989 12.5421 9.56047 12.7721C9.75809 12.9986 9.85966 13.1549 9.91902 13.2982L10.8429 12.9155C10.7247 12.6301 10.5452 12.3798 10.3141 12.1147C10.0859 11.8531 9.78329 11.551 9.40375 11.1714L8.69665 11.8785ZM10.8429 15.0841C11.1305 14.3899 11.1305 13.6098 10.8429 12.9155L9.91902 13.2982C10.1051 13.7475 10.1051 14.2522 9.91902 14.7014L10.8429 15.0841ZM19.3039 11.8785C19.6931 11.4893 19.9675 11.2153 20.1975 11.0147C20.424 10.8171 20.5803 10.7155 20.7236 10.6562L20.341 9.73228C20.0555 9.85053 19.8052 10.0299 19.5401 10.2611C19.2785 10.4893 18.9763 10.7919 18.5968 11.1714L19.3039 11.8785ZM24.2537 11.1714C23.8741 10.7919 23.572 10.4893 23.3103 10.2611C23.0453 10.0299 22.795 9.85053 22.5095 9.73228L22.1268 10.6562C22.2702 10.7155 22.4264 10.8171 22.653 11.0147C22.883 11.2153 23.1574 11.4893 23.5466 11.8785L24.2537 11.1714ZM20.7236 10.6562C21.1729 10.4701 21.6776 10.4701 22.1268 10.6562L22.5095 9.73228C21.8153 9.44471 21.0352 9.44471 20.341 9.73228L20.7236 10.6562ZM19.3039 16.1212C18.9147 15.732 18.6407 15.4576 18.4401 15.2276C18.2425 15.001 18.1409 14.8448 18.0816 14.7014L17.1577 15.0841C17.2759 15.3696 17.4554 15.6199 17.6865 15.8849C17.9147 16.1466 18.2173 16.4487 18.5968 16.8283L19.3039 16.1212ZM18.5968 11.1714C18.2173 11.551 17.9147 11.8531 17.6865 12.1148C17.4553 12.3798 17.2759 12.6301 17.1577 12.9155L18.0816 13.2982C18.1409 13.1549 18.2425 12.9986 18.4401 12.7721C18.6407 12.5421 18.9147 12.2678 19.3039 11.8785L18.5968 11.1714ZM18.0816 14.7014C17.8955 14.2522 17.8955 13.7475 18.0816 13.2982L17.1577 12.9155C16.8701 13.6098 16.8701 14.3899 17.1577 15.0841L18.0816 14.7014ZM23.5466 16.1212C23.1574 16.5104 22.883 16.7844 22.653 16.985C22.4264 17.1826 22.2702 17.2842 22.1268 17.3436L22.5095 18.2674C22.795 18.1492 23.0453 17.9698 23.3103 17.7386C23.572 17.5104 23.8741 17.2078 24.2537 16.8283L23.5466 16.1212ZM18.5968 16.8283C18.9764 17.2078 19.2785 17.5104 19.5402 17.7386C19.8052 17.9698 20.0555 18.1492 20.341 18.2674L20.7236 17.3436C20.5803 17.2842 20.4241 17.1826 20.1975 16.985C19.9676 16.7844 19.6932 16.5104 19.3039 16.1212L18.5968 16.8283ZM22.1268 17.3436C21.6776 17.5296 21.1729 17.5296 20.7236 17.3436L20.341 18.2674C21.0352 18.555 21.8153 18.555 22.5095 18.2674L22.1268 17.3436ZM24.2537 16.8283C24.6332 16.4487 24.9358 16.1466 25.164 15.8849C25.3952 15.6199 25.5746 15.3696 25.6928 15.0841L24.769 14.7014C24.7096 14.8448 24.608 15.001 24.4104 15.2276C24.2098 15.4576 23.9358 15.732 23.5466 16.1212L24.2537 16.8283ZM23.5466 11.8785C23.9358 12.2678 24.2098 12.5421 24.4104 12.7721C24.608 12.9986 24.7096 13.1549 24.769 13.2982L25.6928 12.9155C25.5746 12.6301 25.3952 12.3798 25.164 12.1147C24.9358 11.8531 24.6332 11.551 24.2537 11.1714L23.5466 11.8785ZM25.6928 15.0841C25.9804 14.3899 25.9804 13.6098 25.6928 12.9155L24.769 13.2982C24.955 13.7475 24.955 14.2522 24.769 14.7014L25.6928 15.0841ZM11.8789 19.3032C12.2682 18.914 12.5426 18.64 12.7725 18.4394C12.9991 18.2418 13.1553 18.1402 13.2987 18.0808L12.916 17.157C12.6305 17.2752 12.3802 17.4546 12.1152 17.6858C11.8535 17.914 11.5514 18.2166 11.1718 18.5961L11.8789 19.3032ZM16.8287 18.5961C16.4492 18.2166 16.147 17.914 15.8854 17.6858C15.6204 17.4546 15.37 17.2752 15.0846 17.157L14.7019 18.0808C14.8452 18.1402 15.0015 18.2418 15.228 18.4394C15.458 18.64 15.7324 18.914 16.1216 19.3032L16.8287 18.5961ZM13.2987 18.0808C13.7479 17.8948 14.2527 17.8948 14.7019 18.0808L15.0846 17.157C14.3903 16.8694 13.6102 16.8694 12.916 17.157L13.2987 18.0808ZM11.879 23.5459C11.4897 23.1566 11.2157 22.8822 11.0152 22.6523C10.8175 22.4257 10.716 22.2694 10.6566 22.1261L9.73271 22.5088C9.85096 22.7943 10.0304 23.0446 10.2616 23.3096C10.4898 23.5712 10.7923 23.8734 11.1719 24.253L11.879 23.5459ZM11.1718 18.5961C10.7923 18.9757 10.4897 19.2778 10.2615 19.5394C10.0304 19.8045 9.85096 20.0548 9.73271 20.3402L10.6566 20.7229C10.716 20.5796 10.8175 20.4233 11.0151 20.1968C11.2157 19.9668 11.4897 19.6924 11.8789 19.3032L11.1718 18.5961ZM10.6566 22.1261C10.4705 21.6769 10.4705 21.1721 10.6566 20.7229L9.73271 20.3402C9.44515 21.0345 9.44515 21.8146 9.73271 22.5088L10.6566 22.1261ZM16.1216 23.5459C15.7324 23.9351 15.458 24.2091 15.228 24.4097C15.0015 24.6073 14.8452 24.7089 14.7019 24.7682L15.0846 25.6921C15.37 25.5739 15.6204 25.3944 15.8854 25.1633C16.147 24.9351 16.4492 24.6325 16.8287 24.253L16.1216 23.5459ZM11.1719 24.253C11.5514 24.6325 11.8536 24.9351 12.1152 25.1633C12.3802 25.3944 12.6305 25.5739 12.916 25.6921L13.2987 24.7682C13.1554 24.7089 12.9991 24.6073 12.7725 24.4097C12.5426 24.2091 12.2682 23.9351 11.879 23.5459L11.1719 24.253ZM14.7019 24.7682C14.2527 24.9543 13.7479 24.9543 13.2987 24.7682L12.916 25.6921C13.6102 25.9797 14.3903 25.9797 15.0846 25.6921L14.7019 24.7682ZM16.8287 24.253C17.2083 23.8734 17.5108 23.5713 17.739 23.3096C17.9702 23.0446 18.1496 22.7943 18.2679 22.5088L17.344 22.1261C17.2846 22.2694 17.1831 22.4257 16.9854 22.6523C16.7849 22.8822 16.5108 23.1566 16.1216 23.5459L16.8287 24.253ZM16.1216 19.3032C16.5108 19.6924 16.7849 19.9668 16.9854 20.1968C17.1831 20.4233 17.2846 20.5796 17.344 20.7229L18.2679 20.3402C18.1496 20.0547 17.9702 19.8044 17.739 19.5394C17.5108 19.2778 17.2083 18.9756 16.8287 18.5961L16.1216 19.3032ZM18.2679 22.5088C18.5554 21.8146 18.5554 21.0345 18.2679 20.3402L17.344 20.7229C17.5301 21.1721 17.5301 21.6769 17.344 22.1261L18.2679 22.5088Z" fill="white"/>
</svg>
