<svg width="242" height="60" viewBox="0 0 242 60" fill="none" xmlns="http://www.w3.org/2000/svg">
<rect x="1.5" y="1.5" width="239" height="57" rx="28.5" stroke="url(#paint0_linear_48_5)" stroke-width="3"/>
<path d="M61.776 29.87L65.272 21.7H66.64L62.213 32.093C61.7697 33.157 61.206 33.9233 60.522 34.392C59.838 34.8607 58.9893 35.0633 57.976 35V33.784C58.6853 33.86 59.268 33.7587 59.724 33.48C60.1927 33.1887 60.579 32.6883 60.883 31.979L61.149 31.352L56.57 21.7H57.938L61.776 29.87ZM72.1216 30.117C73.2236 30.535 73.7746 31.295 73.7746 32.397C73.7746 33.195 73.4643 33.8663 72.8436 34.411C72.2483 34.9557 71.3743 35.228 70.2216 35.228C68.2963 35.228 67.0423 34.468 66.4596 32.948L67.5236 32.321C67.929 33.4483 68.8283 34.012 70.2216 34.012C70.9436 34.012 71.5073 33.86 71.9126 33.556C72.318 33.2393 72.5206 32.8277 72.5206 32.321C72.5206 31.865 72.356 31.504 72.0266 31.238C71.6973 30.9593 71.254 30.82 70.6966 30.82H69.3096V29.604H70.3166C70.8613 29.604 71.2856 29.471 71.5896 29.205C71.9063 28.9263 72.0646 28.5463 72.0646 28.065C72.0646 27.609 71.8746 27.2353 71.4946 26.944C71.1273 26.64 70.6396 26.488 70.0316 26.488C68.8536 26.488 68.062 26.963 67.6566 27.913L66.6116 27.305C67.245 25.9497 68.385 25.272 70.0316 25.272C71.045 25.272 71.843 25.538 72.4256 26.07C73.021 26.5893 73.3186 27.229 73.3186 27.989C73.3186 28.9643 72.9196 29.6737 72.1216 30.117ZM82.4066 29.642V25.5H83.6606V35H82.4066V30.858H76.9346V35H75.6806V25.5H76.9346V29.642H82.4066ZM94.4824 27.362V25.5H95.7364V35H94.4824V33.138C93.6084 34.5313 92.3291 35.228 90.6444 35.228C89.2891 35.228 88.1301 34.7467 87.1674 33.784C86.2174 32.8213 85.7424 31.6433 85.7424 30.25C85.7424 28.8567 86.2174 27.6787 87.1674 26.716C88.1301 25.7533 89.2891 25.272 90.6444 25.272C92.3291 25.272 93.6084 25.9687 94.4824 27.362ZM88.0794 32.929C88.8014 33.651 89.6881 34.012 90.7394 34.012C91.7908 34.012 92.6774 33.651 93.3994 32.929C94.1214 32.1817 94.4824 31.2887 94.4824 30.25C94.4824 29.1987 94.1214 28.312 93.3994 27.59C92.6774 26.8553 91.7908 26.488 90.7394 26.488C89.6881 26.488 88.8014 26.8553 88.0794 27.59C87.3574 28.312 86.9964 29.1987 86.9964 30.25C86.9964 31.2887 87.3574 32.1817 88.0794 32.929ZM97.2515 25.5H105.232V26.716H101.869V35H100.615V26.716H97.2515V25.5ZM108.014 29.11H110.617C111.491 29.11 112.238 29.3887 112.859 29.946C113.479 30.4907 113.79 31.1937 113.79 32.055C113.79 32.929 113.479 33.6383 112.859 34.183C112.263 34.7277 111.516 35 110.617 35H106.76V25.5H108.014V29.11ZM108.014 33.784H110.617C111.161 33.784 111.617 33.6257 111.985 33.309C112.352 32.9797 112.536 32.5617 112.536 32.055C112.536 31.5483 112.352 31.1367 111.985 30.82C111.617 30.4907 111.161 30.326 110.617 30.326H108.014V33.784ZM124.652 35.228C123.297 35.228 122.157 34.7783 121.232 33.879C120.32 32.967 119.864 31.789 119.864 30.345C119.864 28.7237 120.105 27.4823 120.586 26.621C121.068 25.747 122.043 24.9553 123.512 24.246C123.981 24.0307 124.348 23.866 124.614 23.752C125.058 23.5747 125.406 23.4227 125.659 23.296C126.761 22.7893 127.319 22.1623 127.331 21.415L128.319 21.985C128.256 22.3017 128.155 22.5867 128.015 22.84C127.851 23.1187 127.686 23.3403 127.521 23.505C127.369 23.6697 127.129 23.847 126.799 24.037C126.584 24.1637 126.324 24.303 126.02 24.455L125.07 24.854L124.177 25.234C123.303 25.614 122.651 26.013 122.22 26.431C121.802 26.8363 121.505 27.3683 121.327 28.027C121.733 27.4823 122.265 27.0707 122.923 26.792C123.582 26.5007 124.247 26.355 124.918 26.355C126.185 26.355 127.23 26.773 128.053 27.609C128.889 28.4323 129.307 29.49 129.307 30.782C129.307 32.0613 128.864 33.1253 127.977 33.974C127.103 34.81 125.995 35.228 124.652 35.228ZM122.182 33.043C122.841 33.6637 123.664 33.974 124.652 33.974C125.64 33.974 126.451 33.6763 127.084 33.081C127.73 32.473 128.053 31.7067 128.053 30.782C128.053 29.8447 127.749 29.0783 127.141 28.483C126.546 27.875 125.748 27.571 124.747 27.571C123.848 27.571 123.031 27.856 122.296 28.426C121.562 28.9707 121.194 29.718 121.194 30.668C121.194 31.6307 121.524 32.4223 122.182 33.043ZM139.176 33.803C138.2 34.753 137.022 35.228 135.642 35.228C134.236 35.228 133.051 34.753 132.089 33.803C131.126 32.8403 130.645 31.656 130.645 30.25C130.645 28.844 131.126 27.666 132.089 26.716C133.051 25.7533 134.236 25.272 135.642 25.272C137.035 25.272 138.213 25.7533 139.176 26.716C140.151 27.666 140.639 28.844 140.639 30.25C140.639 31.6433 140.151 32.8277 139.176 33.803ZM132.982 32.929C133.704 33.651 134.59 34.012 135.642 34.012C136.693 34.012 137.58 33.651 138.302 32.929C139.024 32.1817 139.385 31.2887 139.385 30.25C139.385 29.1987 139.024 28.312 138.302 27.59C137.58 26.8553 136.693 26.488 135.642 26.488C134.59 26.488 133.704 26.8553 132.982 27.59C132.26 28.312 131.899 29.1987 131.899 30.25C131.899 31.2887 132.26 32.1817 132.982 32.929ZM143.354 25.5H150.156V35H148.902V26.716H144.608V30.953C144.608 32.5363 144.304 33.6257 143.696 34.221C143.101 34.8163 142.277 35.076 141.226 35V33.822C141.961 33.898 142.499 33.7207 142.841 33.29C143.183 32.8593 143.354 32.0803 143.354 30.953V25.5ZM154.066 29.11H156.669C157.543 29.11 158.291 29.3887 158.911 29.946C159.532 30.4907 159.842 31.1937 159.842 32.055C159.842 32.929 159.532 33.6383 158.911 34.183C158.316 34.7277 157.569 35 156.669 35H152.812V25.5H154.066V29.11ZM154.066 33.784H156.669C157.214 33.784 157.67 33.6257 158.037 33.309C158.405 32.9797 158.588 32.5617 158.588 32.055C158.588 31.5483 158.405 31.1367 158.037 30.82C157.67 30.4907 157.214 30.326 156.669 30.326H154.066V33.784ZM173.213 33.784V25.5H174.467V35H161.737V25.5H162.991V33.784H167.475V25.5H168.729V33.784H173.213ZM181.508 25.272C182.927 25.272 184.06 25.7723 184.909 26.773C185.783 27.761 186.22 28.9327 186.22 30.288C186.22 30.3513 186.207 30.5477 186.182 30.877H177.841C177.968 31.827 178.373 32.587 179.057 33.157C179.741 33.727 180.596 34.012 181.622 34.012C183.066 34.012 184.086 33.4737 184.681 32.397L185.783 33.043C185.365 33.727 184.789 34.2653 184.054 34.658C183.332 35.038 182.515 35.228 181.603 35.228C180.108 35.228 178.892 34.7593 177.955 33.822C177.018 32.8847 176.549 31.694 176.549 30.25C176.549 28.8187 177.011 27.6343 177.936 26.697C178.861 25.747 180.051 25.272 181.508 25.272ZM181.508 26.488C180.52 26.488 179.69 26.7793 179.019 27.362C178.36 27.9447 177.968 28.711 177.841 29.661H184.928C184.789 28.6477 184.402 27.8687 183.769 27.324C183.11 26.7667 182.357 26.488 181.508 26.488Z" fill="white"/>
<defs>
<linearGradient id="paint0_linear_48_5" x1="-4.5076e-07" y1="30" x2="242" y2="30" gradientUnits="userSpaceOnUse">
<stop stop-color="#742EDA"/>
<stop offset="1" stop-color="#BB02FE"/>
</linearGradient>
</defs>
</svg>
