<svg width="143" height="23" viewBox="0 0 143 23" fill="none" xmlns="http://www.w3.org/2000/svg">
<path d="M5.06438 11.832V5.08H16.2324V11.832H5.06438ZM20.6804 23V18.52L18.4724 16.312L20.6804 14.072V2.872L18.4724 0.599998H0.584375V23H5.06438V16.312H11.7524L13.9924 18.52L16.2324 20.792V23H20.6804ZM28.0256 11.832V9.592L32.4736 5.08H39.1936V11.832H28.0256ZM28.0256 23V16.312H39.1936V23H43.6416V0.599998H30.2336L23.5456 7.352V23H28.0256ZM51.3144 23V0.599998H46.8344V23H51.3144ZM54.5219 0.599998V23H73.5299V18.52H59.0019V0.599998H54.5219ZM93.6599 23L95.8679 20.792V10.168H85.7879V14.648H91.4199V18.52H80.2519V5.08H91.4199V7.32H95.8679V2.872L93.6599 0.599998H77.9799L75.7719 2.872V20.792L77.9799 23H93.6599ZM99.0531 0.599998V20.792L101.261 23H116.941L119.149 20.792V0.599998H114.701V18.52H103.533V0.599998H99.0531ZM142.43 23V0.599998H137.982V15.512L126.814 0.599998H122.334V23H126.814V8.056L137.982 23H142.43Z" fill="white"/>
</svg>
