<svg width="28" height="28" viewBox="0 0 28 28" fill="none" xmlns="http://www.w3.org/2000/svg">
<path d="M3.5 3C3.22386 3 3 3.22386 3 3.5C3 3.77614 3.22386 4 3.5 4V3ZM6.15007 4.97557L6.63897 4.8708L6.63897 4.8708L6.15007 4.97557ZM9.01769 18.3578L8.52879 18.4626L9.01769 18.3578ZM9.32574 19.3436L8.91851 19.6337L8.91851 19.6337L9.32574 19.3436ZM9.81413 19.7376L10.0125 19.2787L10.0125 19.2787L9.81413 19.7376ZM5.35243 3.59572L5.55078 3.13675L5.55078 3.13675L5.35243 3.59572ZM5.84017 3.98977L6.2474 3.69965L6.2474 3.69965L5.84017 3.98977ZM7 6.5C6.72386 6.5 6.5 6.72386 6.5 7C6.5 7.27614 6.72386 7.5 7 7.5V6.5ZM23.8128 9.38403L24.2932 9.52261L24.2932 9.52261L23.8128 9.38403ZM22.1974 14.984L21.717 14.8455L21.717 14.8455L22.1974 14.984ZM9.01888 15.8333C8.74274 15.8333 8.51888 16.0572 8.51888 16.3333C8.51888 16.6095 8.74274 16.8333 9.01888 16.8333V15.8333ZM21.8465 15.8892L22.2391 16.1989L22.2391 16.1989L21.8465 15.8892ZM21.3699 16.247L21.5586 16.7101L21.3699 16.247ZM23.5643 7.17542L23.3006 7.60024L23.3006 7.60024L23.5643 7.17542ZM24.0717 7.85022L24.553 7.71461L24.0717 7.85022ZM19.8333 24C18.8208 24 18 23.1792 18 22.1667H17C17 23.7315 18.2685 25 19.8333 25V24ZM18 22.1667C18 21.1541 18.8208 20.3333 19.8333 20.3333V19.3333C18.2685 19.3333 17 20.6019 17 22.1667H18ZM19.8333 20.3333C20.8459 20.3333 21.6667 21.1541 21.6667 22.1667H22.6667C22.6667 20.6019 21.3981 19.3333 19.8333 19.3333V20.3333ZM21.6667 22.1667C21.6667 23.1792 20.8459 24 19.8333 24V25C21.3981 25 22.6667 23.7315 22.6667 22.1667H21.6667ZM9.33333 24C8.32081 24 7.5 23.1792 7.5 22.1667H6.5C6.5 23.7315 7.76853 25 9.33333 25V24ZM7.5 22.1667C7.5 21.1541 8.32081 20.3333 9.33333 20.3333V19.3333C7.76853 19.3333 6.5 20.6019 6.5 22.1667H7.5ZM9.33333 20.3333C10.3459 20.3333 11.1667 21.1541 11.1667 22.1667H12.1667C12.1667 20.6019 10.8981 19.3333 9.33333 19.3333V20.3333ZM11.1667 22.1667C11.1667 23.1792 10.3459 24 9.33333 24V25C10.8981 25 12.1667 23.7315 12.1667 22.1667H11.1667ZM3.5 4H4.32429V3H3.5V4ZM5.66116 5.08033L8.52879 18.4626L9.50659 18.253L6.63897 4.8708L5.66116 5.08033ZM10.8429 20.3333H19.8333V19.3333H10.8429V20.3333ZM8.52879 18.4626C8.58352 18.718 8.62974 18.9364 8.6814 19.114C8.73486 19.2977 8.80318 19.4718 8.91851 19.6337L9.73297 19.0535C9.70829 19.0188 9.67896 18.9631 9.64159 18.8346C9.60242 18.7 9.56461 18.5238 9.50659 18.253L8.52879 18.4626ZM10.8429 19.3333C10.5666 19.3333 10.3862 19.333 10.2466 19.3227C10.1132 19.3129 10.052 19.2958 10.0125 19.2787L9.61578 20.1966C9.79772 20.2752 9.98189 20.3059 10.173 20.32C10.3579 20.3337 10.5812 20.3333 10.8429 20.3333V19.3333ZM8.91851 19.6337C9.09548 19.8821 9.33759 20.0764 9.61578 20.1966L10.0125 19.2787C9.89994 19.23 9.80297 19.1517 9.73297 19.0535L8.91851 19.6337ZM4.32429 4C4.60067 4 4.78085 4.00032 4.92028 4.01061C5.05335 4.02043 5.11442 4.03756 5.15408 4.0547L5.55078 3.13675C5.36893 3.05816 5.185 3.02743 4.99391 3.01332C4.80917 2.99968 4.58604 3 4.32429 3V4ZM6.63897 4.8708C6.58404 4.61449 6.53739 4.39617 6.48505 4.21807C6.43095 4.03398 6.36214 3.86072 6.2474 3.69965L5.43294 4.27988C5.45821 4.31535 5.48797 4.37189 5.52563 4.50003C5.56504 4.63415 5.60333 4.81046 5.66116 5.08033L6.63897 4.8708ZM5.15408 4.0547C5.26601 4.10307 5.36257 4.18109 5.43294 4.27988L6.2474 3.69965C6.0708 3.45177 5.82957 3.25723 5.55078 3.13675L5.15408 4.0547ZM7 7.5H22.0188V6.5H7V7.5ZM23.3324 9.24545L21.717 14.8455L22.6778 15.1226L24.2932 9.52261L23.3324 9.24545ZM20.403 15.8333H9.01888V16.8333H20.403V15.8333ZM21.717 14.8455C21.5651 15.3721 21.5201 15.4957 21.4539 15.5796L22.2391 16.1989C22.4561 15.9237 22.5507 15.5635 22.6778 15.1226L21.717 14.8455ZM20.403 16.8333C20.8619 16.8333 21.2341 16.8423 21.5586 16.7101L21.1812 15.784C21.0823 15.8243 20.9511 15.8333 20.403 15.8333V16.8333ZM21.4539 15.5796C21.3832 15.6693 21.2889 15.7401 21.1812 15.784L21.5586 16.7101C21.8246 16.6017 22.06 16.426 22.2391 16.1989L21.4539 15.5796ZM22.0188 7.5C22.4491 7.5 22.7385 7.50047 22.9569 7.51995C23.172 7.53914 23.2567 7.57298 23.3006 7.60024L23.828 6.7506C23.5893 6.60244 23.3222 6.54857 23.0457 6.5239C22.7725 6.49953 22.4305 6.5 22.0188 6.5V7.5ZM24.2932 9.52261C24.4074 9.12673 24.5024 8.7982 24.5545 8.52866C24.6072 8.25595 24.6291 7.98465 24.553 7.71461L23.5905 7.98583C23.6046 8.03595 23.6137 8.12702 23.5727 8.33891C23.5311 8.55397 23.4516 8.83226 23.3324 9.24545L24.2932 9.52261ZM23.3006 7.60024C23.4419 7.68793 23.5452 7.82536 23.5905 7.98583L24.553 7.71461C24.4401 7.31418 24.1818 6.97022 23.828 6.7506L23.3006 7.60024Z" fill="white"/>
</svg>
