<svg width="28" height="25" viewBox="0 0 28 25" fill="none" xmlns="http://www.w3.org/2000/svg">
<path d="M21.6666 21.875C21.6666 22.1511 21.8905 22.375 22.1666 22.375C22.4428 22.375 22.6666 22.1511 22.6666 21.875H21.6666ZM5.33331 21.875C5.33331 22.1511 5.55717 22.375 5.83331 22.375C6.10946 22.375 6.33331 22.1511 6.33331 21.875H5.33331ZM22.6666 21.875C22.6666 17.52 18.7317 14.0833 14 14.0833V15.0833C18.289 15.0833 21.6666 18.1758 21.6666 21.875H22.6666ZM14 14.0833C9.2683 14.0833 5.33331 17.52 5.33331 21.875H6.33331C6.33331 18.1758 9.71101 15.0833 14 15.0833V14.0833ZM14 10.9583C11.644 10.9583 9.83331 9.26494 9.83331 7.29167H8.83331C8.83331 9.92077 11.2013 11.9583 14 11.9583V10.9583ZM9.83331 7.29167C9.83331 5.3184 11.644 3.625 14 3.625V2.625C11.2013 2.625 8.83331 4.66256 8.83331 7.29167H9.83331ZM14 3.625C16.356 3.625 18.1666 5.3184 18.1666 7.29167H19.1666C19.1666 4.66256 16.7987 2.625 14 2.625V3.625ZM18.1666 7.29167C18.1666 9.26494 16.356 10.9583 14 10.9583V11.9583C16.7987 11.9583 19.1666 9.92077 19.1666 7.29167H18.1666Z" fill="white"/>
</svg>
