<svg width="432" height="154" viewBox="0 0 432 154" fill="none" xmlns="http://www.w3.org/2000/svg">
<path d="M45.5344 54.0703L49.7601 62.0166L49.7624 62.0153L45.5344 54.0703ZM15.4562 54.0703L11.2282 62.0153L11.2305 62.0166L15.4562 54.0703ZM4.83125 43.875L12.5687 39.278L12.5608 39.2647L12.5528 39.2513L4.83125 43.875ZM4.83125 14.0703L-2.90619 9.47336L-2.91028 9.48024L-2.91435 9.48712L4.83125 14.0703ZM15.4562 3.91406L19.648 11.8783L19.665 11.8694L19.682 11.8603L15.4562 3.91406ZM45.5344 3.91406L41.3086 11.8603L41.3256 11.8694L41.3427 11.8783L45.5344 3.91406ZM56.1594 14.0703L63.9367 9.54116L63.9169 9.50717L63.8968 9.47336L56.1594 14.0703ZM56.1594 43.875L63.8968 48.472L63.905 48.4581L63.9132 48.4442L56.1594 43.875ZM19.2453 40.3203L25.5275 33.8756L25.5268 33.8749L19.2453 40.3203ZM41.7453 40.3203L35.4638 33.8749L35.4631 33.8756L41.7453 40.3203ZM41.7844 17.625L48.121 11.2338L48.0796 11.1928L48.0377 11.1523L41.7844 17.625ZM19.2453 17.625L12.9645 11.1789L12.9638 11.1796L19.2453 17.625ZM41.3086 46.1241C38.2096 47.7721 34.6663 48.6641 30.4953 48.6641V66.6641C37.366 66.6641 43.8488 65.1602 49.7601 62.0166L41.3086 46.1241ZM30.4953 48.6641C26.3243 48.6641 22.7811 47.7721 19.682 46.1241L11.2305 62.0166C17.1419 65.1602 23.6247 66.6641 30.4953 66.6641V48.6641ZM19.6843 46.1253C16.7169 44.5461 14.376 42.32 12.5687 39.278L-2.90619 48.472C0.546928 54.2841 5.28937 58.8549 11.2282 62.0153L19.6843 46.1253ZM12.5528 39.2513C10.867 36.4361 9.925 33.1034 9.925 28.9922H-8.075C-8.075 36.0268 -6.41281 42.616 -2.89026 48.4987L12.5528 39.2513ZM9.925 28.9922C9.925 24.9167 10.8629 21.5502 12.5768 18.6535L-2.91435 9.48712C-6.40869 15.3926 -8.075 21.9739 -8.075 28.9922H9.925ZM12.5687 18.6673C14.3712 15.6333 16.7005 13.4296 19.648 11.8783L11.2645 -4.0502C5.30573 -0.91399 0.55169 3.65316 -2.90619 9.47336L12.5687 18.6673ZM19.682 11.8603C22.7811 10.2123 26.3243 9.32031 30.4953 9.32031V-8.67969C23.6247 -8.67969 17.1419 -7.17581 11.2305 -4.03219L19.682 11.8603ZM30.4953 9.32031C34.6663 9.32031 38.2096 10.2123 41.3086 11.8603L49.7601 -4.03219C43.8488 -7.17581 37.366 -8.67969 30.4953 -8.67969V9.32031ZM41.3427 11.8783C44.2901 13.4296 46.6194 15.6333 48.4219 18.6673L63.8968 9.47336C60.4389 3.65316 55.6849 -0.91399 49.7261 -4.0502L41.3427 11.8783ZM48.382 18.5995C50.0975 21.5451 51.0266 24.9349 51.0266 28.9922H69.0266C69.0266 22.0078 67.3775 15.4497 63.9367 9.54116L48.382 18.5995ZM51.0266 28.9922C51.0266 33.085 50.0935 36.4414 48.4055 39.3058L63.9132 48.4442C67.3815 42.5586 69.0266 35.9931 69.0266 28.9922H51.0266ZM48.4219 39.278C46.6146 42.32 44.2737 44.5461 41.3063 46.1253L49.7624 62.0153C55.7013 58.8549 60.4437 54.2841 63.8968 48.472L48.4219 39.278ZM12.9631 46.765C17.7744 51.455 23.7916 53.8516 30.4953 53.8516V35.8516C28.397 35.8516 26.9142 35.2273 25.5275 33.8756L12.9631 46.765ZM30.4953 53.8516C37.1991 53.8516 43.2162 51.455 48.0275 46.765L35.4631 33.8756C34.0765 35.2273 32.5937 35.8516 30.4953 35.8516V53.8516ZM48.0268 46.7657C52.9546 41.9632 55.3547 35.8087 55.3547 28.9922H37.3547C37.3547 31.2902 36.6819 32.6878 35.4638 33.8749L48.0268 46.7657ZM55.3547 28.9922C55.3547 22.2003 52.9866 16.0579 48.121 11.2338L35.4478 24.0162C36.6759 25.2338 37.3547 26.6695 37.3547 28.9922H55.3547ZM48.0377 11.1523C43.2098 6.48802 37.1724 4.17188 30.4953 4.17188V22.1719C32.7245 22.1719 34.2132 22.8245 35.5311 24.0977L48.0377 11.1523ZM30.4953 4.17188C23.8175 4.17188 17.7773 6.48958 12.9645 11.1789L25.5261 24.0711C26.8071 22.8229 28.2669 22.1719 30.4953 22.1719V4.17188ZM12.9638 11.1796C8.02521 15.9927 5.63594 22.1657 5.63594 28.9922H23.6359C23.6359 26.652 24.3196 25.2469 25.5268 24.0704L12.9638 11.1796ZM5.63594 28.9922C5.63594 35.8087 8.03605 41.9632 12.9638 46.7657L25.5268 33.8749C24.3087 32.6878 23.6359 31.2902 23.6359 28.9922H5.63594ZM109.444 42.7422L104.961 34.9382L104.943 34.9486L104.925 34.9591L109.444 42.7422ZM115.108 36.9609L118.946 28.8205L111.253 25.1931L107.197 32.669L115.108 36.9609ZM127.452 42.7812L135.465 46.878L139.695 38.604L131.29 34.6408L127.452 42.7812ZM116.944 53.6797L112.502 45.852L112.476 45.8668L112.45 45.8818L116.944 53.6797ZM86.3187 54.0703L82.0907 62.0153L82.093 62.0166L86.3187 54.0703ZM75.6937 43.875L83.4312 39.278L83.4232 39.2647L83.4153 39.2513L75.6937 43.875ZM75.6937 14.0703L67.9563 9.47336L67.9522 9.48024L67.9481 9.48712L75.6937 14.0703ZM86.3187 3.91406L90.5105 11.8783L90.5275 11.8694L90.5445 11.8603L86.3187 3.91406ZM116.944 4.26562L121.451 -3.52421L121.418 -3.54327L121.385 -3.56206L116.944 4.26562ZM127.452 15.2031L131.29 23.3436L139.714 19.3713L135.456 11.088L127.452 15.2031ZM115.108 21.0234L107.197 25.3154L111.253 32.7913L118.946 29.1639L115.108 21.0234ZM109.444 15.2812L104.961 23.0852L104.992 23.1032L105.023 23.121L109.444 15.2812ZM90.1078 17.625L83.827 11.1789L83.8263 11.1796L90.1078 17.625ZM90.1078 40.3594L96.4442 33.9679L96.4169 33.9408L96.3893 33.914L90.1078 40.3594ZM101.358 53.8516C105.815 53.8516 110.085 52.7769 113.963 50.5253L104.925 34.9591C103.959 35.52 102.838 35.8516 101.358 35.8516V53.8516ZM113.927 50.5461C117.8 48.3213 120.884 45.1874 123.018 41.2529L107.197 32.669C106.676 33.6303 105.984 34.3505 104.961 34.9382L113.927 50.5461ZM111.269 45.1014L123.613 50.9217L131.29 34.6408L118.946 28.8205L111.269 45.1014ZM119.438 38.6845C117.889 41.715 115.647 44.0679 112.502 45.852L121.385 61.5074C127.512 58.0311 132.275 53.1183 135.465 46.878L119.438 38.6845ZM112.45 45.8818C109.325 47.683 105.703 48.6641 101.358 48.6641V66.6641C108.575 66.6641 115.344 64.9889 121.437 61.4776L112.45 45.8818ZM101.358 48.6641C97.1868 48.6641 93.6436 47.7721 90.5445 46.1241L82.093 62.0166C88.0044 65.1602 94.4872 66.6641 101.358 66.6641V48.6641ZM90.5468 46.1253C87.5794 44.5461 85.2385 42.32 83.4312 39.278L67.9563 48.472C71.4094 54.2841 76.1519 58.8549 82.0907 62.0153L90.5468 46.1253ZM83.4153 39.2513C81.7295 36.4361 80.7875 33.1034 80.7875 28.9922H62.7875C62.7875 36.0268 64.4497 42.616 67.9722 48.4987L83.4153 39.2513ZM80.7875 28.9922C80.7875 24.9167 81.7254 21.5502 83.4393 18.6535L67.9481 9.48712C64.4538 15.3926 62.7875 21.9739 62.7875 28.9922H80.7875ZM83.4312 18.6673C85.2337 15.6333 87.563 13.4296 90.5105 11.8783L82.127 -4.0502C76.1682 -0.91399 71.4142 3.65316 67.9563 9.47336L83.4312 18.6673ZM90.5445 11.8603C93.6436 10.2123 97.1868 9.32031 101.358 9.32031V-8.67969C94.4872 -8.67969 88.0044 -7.17581 82.093 -4.03219L90.5445 11.8603ZM101.358 9.32031C105.684 9.32031 109.328 10.2924 112.502 12.0933L121.385 -3.56206C115.288 -7.02152 108.542 -8.67969 101.358 -8.67969V9.32031ZM112.436 12.0555C115.63 13.9038 117.894 16.2967 119.447 19.3182L135.456 11.088C132.27 4.89075 127.528 -0.00796455 121.451 -3.52421L112.436 12.0555ZM123.613 7.06268L111.269 12.883L118.946 29.1639L131.29 23.3436L123.613 7.06268ZM123.018 16.7315C120.876 12.7822 117.772 9.64475 113.864 7.44153L105.023 23.121C106.012 23.6782 106.684 24.3689 107.197 25.3154L123.018 16.7315ZM113.927 7.4773C110.056 5.2535 105.804 4.17188 101.358 4.17188V22.1719C102.797 22.1719 103.936 22.4965 104.961 23.0852L113.927 7.4773ZM101.358 4.17188C94.68 4.17188 88.6398 6.48958 83.827 11.1789L96.3886 24.0711C97.6696 22.8229 99.1294 22.1719 101.358 22.1719V4.17188ZM83.8263 11.1796C78.8877 15.9927 76.4984 22.1657 76.4984 28.9922H94.4984C94.4984 26.652 95.1821 25.2469 96.3893 24.0704L83.8263 11.1796ZM76.4984 28.9922C76.4984 35.8187 78.8877 41.9917 83.8263 46.8047L96.3893 33.914C95.1821 32.7375 94.4984 31.3324 94.4984 28.9922H76.4984ZM83.7715 46.7508C88.5745 51.5125 94.6449 53.8516 101.358 53.8516V35.8516C99.1124 35.8516 97.6828 35.1959 96.4442 33.9679L83.7715 46.7508ZM141.517 57H132.517V66H141.517V57ZM141.517 0.984375V-8.01562H132.517V0.984375H141.517ZM180.736 0.984375H189.736V-8.01562H180.736V0.984375ZM180.736 12.0781V21.0781H189.736V12.0781H180.736ZM155.502 12.0781V3.07812H146.502V12.0781H155.502ZM155.502 23.875H146.502V32.875H155.502V23.875ZM178.314 23.875H187.314V14.875H178.314V23.875ZM178.314 35.0078V44.0078H187.314V35.0078H178.314ZM155.502 35.0078V26.0078H146.502V35.0078H155.502ZM155.502 45.9062H146.502V54.9062H155.502V45.9062ZM181.947 45.9062H190.947V36.9062H181.947V45.9062ZM181.947 57V66H190.947V57H181.947ZM150.517 57V0.984375H132.517V57H150.517ZM141.517 9.98438H180.736V-8.01562H141.517V9.98438ZM171.736 0.984375V12.0781H189.736V0.984375H171.736ZM180.736 3.07812H155.502V21.0781H180.736V3.07812ZM146.502 12.0781V23.875H164.502V12.0781H146.502ZM155.502 32.875H178.314V14.875H155.502V32.875ZM169.314 23.875V35.0078H187.314V23.875H169.314ZM178.314 26.0078H155.502V44.0078H178.314V26.0078ZM146.502 35.0078V45.9062H164.502V35.0078H146.502ZM155.502 54.9062H181.947V36.9062H155.502V54.9062ZM172.947 45.9062V57H190.947V45.9062H172.947ZM181.947 48H141.517V66H181.947V48ZM232.38 25.0469V34.0469H241.38V25.0469H232.38ZM232.38 0.984375V-8.01562H223.38V0.984375H232.38ZM246.364 0.984375H255.364V-8.01562H246.364V0.984375ZM246.364 57V66H255.364V57H246.364ZM232.341 57H223.341V66H232.341V57ZM232.341 36.1406H241.341V27.1406H232.341V36.1406ZM212.145 36.1406V27.1406H203.145V36.1406H212.145ZM212.145 57V66H221.145V57H212.145ZM198.161 57H189.161V66H198.161V57ZM198.161 0.984375V-8.01562H189.161V0.984375H198.161ZM212.106 0.984375H221.106V-8.01562H212.106V0.984375ZM212.106 25.0469H203.106V34.0469H212.106V25.0469ZM241.38 25.0469V0.984375H223.38V25.0469H241.38ZM232.38 9.98438H246.364V-8.01562H232.38V9.98438ZM237.364 0.984375V57H255.364V0.984375H237.364ZM246.364 48H232.341V66H246.364V48ZM241.341 57V36.1406H223.341V57H241.341ZM232.341 27.1406H212.145V45.1406H232.341V27.1406ZM203.145 36.1406V57H221.145V36.1406H203.145ZM212.145 48H198.161V66H212.145V48ZM207.161 57V0.984375H189.161V57H207.161ZM198.161 9.98438H212.106V-8.01562H198.161V9.98438ZM203.106 0.984375V25.0469H221.106V0.984375H203.106ZM212.106 34.0469H232.38V16.0469H212.106V34.0469ZM296.836 25.0469V34.0469H305.836V25.0469H296.836ZM296.836 0.984375V-8.01562H287.836V0.984375H296.836ZM310.82 0.984375H319.82V-8.01562H310.82V0.984375ZM310.82 57V66H319.82V57H310.82ZM296.797 57H287.797V66H296.797V57ZM296.797 36.1406H305.797V27.1406H296.797V36.1406ZM276.602 36.1406V27.1406H267.602V36.1406H276.602ZM276.602 57V66H285.602V57H276.602ZM262.617 57H253.617V66H262.617V57ZM262.617 0.984375V-8.01562H253.617V0.984375H262.617ZM276.562 0.984375H285.562V-8.01562H276.562V0.984375ZM276.562 25.0469H267.562V34.0469H276.562V25.0469ZM305.836 25.0469V0.984375H287.836V25.0469H305.836ZM296.836 9.98438H310.82V-8.01562H296.836V9.98438ZM301.82 0.984375V57H319.82V0.984375H301.82ZM310.82 48H296.797V66H310.82V48ZM305.797 57V36.1406H287.797V57H305.797ZM296.797 27.1406H276.602V45.1406H296.797V27.1406ZM267.602 36.1406V57H285.602V36.1406H267.602ZM276.602 48H262.617V66H276.602V48ZM271.617 57V0.984375H253.617V57H271.617ZM262.617 9.98438H276.562V-8.01562H262.617V9.98438ZM267.562 0.984375V25.0469H285.562V0.984375H267.562ZM276.562 34.0469H296.836V16.0469H276.562V34.0469ZM327.112 0.984375V-8.01562H318.112V0.984375H327.112ZM341.097 0.984375H350.097V-8.01562H341.097V0.984375ZM341.097 27.5469H332.097V46.412L346.76 34.5421L341.097 27.5469ZM374.73 0.320312H383.73V-18.5448L369.067 -6.67489L374.73 0.320312ZM374.73 57V66H383.73V57H374.73ZM360.745 57H351.745V66H360.745V57ZM360.745 30.4375H369.745V11.5724L355.083 23.4423L360.745 30.4375ZM327.112 57.6641H318.112V76.5291L332.775 64.6593L327.112 57.6641ZM327.112 9.98438H341.097V-8.01562H327.112V9.98438ZM332.097 0.984375V27.5469H350.097V0.984375H332.097ZM346.76 34.5421L380.392 7.31552L369.067 -6.67489L335.434 20.5517L346.76 34.5421ZM365.73 0.320312V57H383.73V0.320312H365.73ZM374.73 48H360.745V66H374.73V48ZM369.745 57V30.4375H351.745V57H369.745ZM355.083 23.4423L321.45 50.6689L332.775 64.6593L366.408 37.4327L355.083 23.4423ZM336.112 57.6641V0.984375H318.112V57.6641H336.112ZM390.983 57H381.983V66H390.983V57ZM390.983 0.984375V-8.01562H381.983V0.984375H390.983ZM430.202 0.984375H439.202V-8.01562H430.202V0.984375ZM430.202 12.0781V21.0781H439.202V12.0781H430.202ZM404.967 12.0781V3.07812H395.967V12.0781H404.967ZM404.967 23.875H395.967V32.875H404.967V23.875ZM427.78 23.875H436.78V14.875H427.78V23.875ZM427.78 35.0078V44.0078H436.78V35.0078H427.78ZM404.967 35.0078V26.0078H395.967V35.0078H404.967ZM404.967 45.9062H395.967V54.9062H404.967V45.9062ZM431.413 45.9062H440.413V36.9062H431.413V45.9062ZM431.413 57V66H440.413V57H431.413ZM399.983 57V0.984375H381.983V57H399.983ZM390.983 9.98438H430.202V-8.01562H390.983V9.98438ZM421.202 0.984375V12.0781H439.202V0.984375H421.202ZM430.202 3.07812H404.967V21.0781H430.202V3.07812ZM395.967 12.0781V23.875H413.967V12.0781H395.967ZM404.967 32.875H427.78V14.875H404.967V32.875ZM418.78 23.875V35.0078H436.78V23.875H418.78ZM427.78 26.0078H404.967V44.0078H427.78V26.0078ZM395.967 35.0078V45.9062H413.967V35.0078H395.967ZM404.967 54.9062H431.413V36.9062H404.967V54.9062ZM422.413 45.9062V57H440.413V45.9062H422.413ZM431.413 48H390.983V66H431.413V48ZM38.5812 127.742L34.0981 119.938L34.0801 119.949L34.062 119.959L38.5812 127.742ZM44.2453 121.961L48.0837 113.82L40.3907 110.193L36.3346 117.669L44.2453 121.961ZM56.5891 127.781L64.6026 131.878L68.8326 123.604L60.4274 119.641L56.5891 127.781ZM46.0812 138.68L41.6397 130.852L41.6136 130.867L41.5876 130.882L46.0812 138.68ZM15.4562 139.07L11.2282 147.015L11.2305 147.017L15.4562 139.07ZM4.83125 128.875L12.5687 124.278L12.5608 124.265L12.5528 124.251L4.83125 128.875ZM4.83125 99.0703L-2.90619 94.4734L-2.91028 94.4802L-2.91435 94.4871L4.83125 99.0703ZM15.4562 88.9141L19.648 96.8783L19.665 96.8694L19.682 96.8603L15.4562 88.9141ZM46.0812 89.2656L50.5889 81.4758L50.5559 81.4567L50.5228 81.4379L46.0812 89.2656ZM56.5891 100.203L60.4274 108.344L68.8518 104.371L64.5932 96.088L56.5891 100.203ZM44.2453 106.023L36.3346 110.315L40.3907 117.791L48.0837 114.164L44.2453 106.023ZM38.5812 100.281L34.0981 108.085L34.1295 108.103L34.161 108.121L38.5812 100.281ZM19.2453 102.625L12.9645 96.1789L12.9638 96.1796L19.2453 102.625ZM19.2453 125.359L25.5817 118.968L25.5544 118.941L25.5268 118.914L19.2453 125.359ZM30.4953 138.852C34.9524 138.852 39.2227 137.777 43.1005 135.525L34.062 119.959C33.096 120.52 31.9757 120.852 30.4953 120.852V138.852ZM43.0644 135.546C46.9372 133.321 50.0213 130.187 52.156 126.253L36.3346 117.669C35.8131 118.63 35.1211 119.351 34.0981 119.938L43.0644 135.546ZM40.4069 130.101L52.7507 135.922L60.4274 119.641L48.0837 113.82L40.4069 130.101ZM48.5756 123.684C47.0262 126.715 44.784 129.068 41.6397 130.852L50.5228 146.507C56.6493 143.031 61.4123 138.118 64.6026 131.878L48.5756 123.684ZM41.5876 130.882C38.462 132.683 34.8401 133.664 30.4953 133.664V151.664C37.713 151.664 44.4817 149.989 50.5749 146.478L41.5876 130.882ZM30.4953 133.664C26.3243 133.664 22.7811 132.772 19.682 131.124L11.2305 147.017C17.1419 150.16 23.6247 151.664 30.4953 151.664V133.664ZM19.6843 131.125C16.7169 129.546 14.376 127.32 12.5687 124.278L-2.90619 133.472C0.546928 139.284 5.28937 143.855 11.2282 147.015L19.6843 131.125ZM12.5528 124.251C10.867 121.436 9.925 118.103 9.925 113.992H-8.075C-8.075 121.027 -6.41281 127.616 -2.89026 133.499L12.5528 124.251ZM9.925 113.992C9.925 109.917 10.8629 106.55 12.5768 103.654L-2.91435 94.4871C-6.40869 100.393 -8.075 106.974 -8.075 113.992H9.925ZM12.5687 103.667C14.3712 100.633 16.7005 98.4296 19.648 96.8783L11.2645 80.9498C5.30573 84.086 0.55169 88.6532 -2.90619 94.4734L12.5687 103.667ZM19.682 96.8603C22.7811 95.2123 26.3243 94.3203 30.4953 94.3203V76.3203C23.6247 76.3203 17.1419 77.8242 11.2305 80.9678L19.682 96.8603ZM30.4953 94.3203C34.8217 94.3203 38.4657 95.2924 41.6397 97.0933L50.5228 81.4379C44.4259 77.9785 37.6793 76.3203 30.4953 76.3203V94.3203ZM41.5736 97.0555C44.7679 98.9038 47.0315 101.297 48.5849 104.318L64.5932 96.088C61.407 89.8908 56.6655 84.992 50.5889 81.4758L41.5736 97.0555ZM52.7507 92.0627L40.4069 97.883L48.0837 114.164L60.4274 108.344L52.7507 92.0627ZM52.156 101.731C50.0133 97.7822 46.9091 94.6448 43.0015 92.4415L34.161 108.121C35.1492 108.678 35.8211 109.369 36.3346 110.315L52.156 101.731ZM43.0644 92.4773C39.1933 90.2535 34.9418 89.1719 30.4953 89.1719V107.172C31.9342 107.172 33.0734 107.496 34.0981 108.085L43.0644 92.4773ZM30.4953 89.1719C23.8175 89.1719 17.7773 91.4896 12.9645 96.1789L25.5261 109.071C26.8071 107.823 28.2669 107.172 30.4953 107.172V89.1719ZM12.9638 96.1796C8.02521 100.993 5.63594 107.166 5.63594 113.992H23.6359C23.6359 111.652 24.3196 110.247 25.5268 109.07L12.9638 96.1796ZM5.63594 113.992C5.63594 120.819 8.02521 126.992 12.9638 131.805L25.5268 118.914C24.3196 117.737 23.6359 116.332 23.6359 113.992H5.63594ZM12.909 131.751C17.712 136.512 23.7824 138.852 30.4953 138.852V120.852C28.2499 120.852 26.8203 120.196 25.5817 118.968L12.909 131.751ZM99.7562 85.9844V76.9844H94.7016L92.071 81.3006L99.7562 85.9844ZM113.897 85.9844L121.582 90.6683L129.922 76.9844H113.897V85.9844ZM96.8266 113.992L89.1415 109.308L86.2867 113.992L89.1415 118.676L96.8266 113.992ZM113.897 142V151H129.922L121.582 137.316L113.897 142ZM99.7562 142L92.071 146.684L94.7016 151H99.7562V142ZM84.6391 117.195L92.3243 112.512L75.6391 85.134V117.195H84.6391ZM84.6391 142V151H93.6391V142H84.6391ZM70.6547 142H61.6547V151H70.6547V142ZM70.6547 85.9844V76.9844H61.6547V85.9844H70.6547ZM84.6391 85.9844H93.6391V76.9844H84.6391V85.9844ZM84.6391 110.789H75.6391V142.85L92.3243 115.473L84.6391 110.789ZM99.7562 94.9844H113.897V76.9844H99.7562V94.9844ZM106.212 81.3004L89.1415 109.308L104.512 118.676L121.582 90.6683L106.212 81.3004ZM89.1415 118.676L106.212 146.684L121.582 137.316L104.512 109.308L89.1415 118.676ZM113.897 133H99.7562V151H113.897V133ZM107.441 137.316L92.3243 112.512L76.9538 121.879L92.071 146.684L107.441 137.316ZM75.6391 117.195V142H93.6391V117.195H75.6391ZM84.6391 133H70.6547V151H84.6391V133ZM79.6547 142V85.9844H61.6547V142H79.6547ZM70.6547 94.9844H84.6391V76.9844H70.6547V94.9844ZM75.6391 85.9844V110.789H93.6391V85.9844H75.6391ZM92.3243 115.473L107.441 90.6681L92.071 81.3006L76.9538 106.105L92.3243 115.473ZM126.947 85.9844V76.9844H117.947V85.9844H126.947ZM140.931 85.9844H149.931V76.9844H140.931V85.9844ZM140.931 112.547H131.931V131.412L146.594 119.542L140.931 112.547ZM174.564 85.3203H183.564V66.4552L168.901 78.3251L174.564 85.3203ZM174.564 142V151H183.564V142H174.564ZM160.58 142H151.58V151H160.58V142ZM160.58 115.438H169.58V96.5724L154.917 108.442L160.58 115.438ZM126.947 142.664H117.947V161.529L132.61 149.659L126.947 142.664ZM126.947 94.9844H140.931V76.9844H126.947V94.9844ZM131.931 85.9844V112.547H149.931V85.9844H131.931ZM146.594 119.542L180.227 92.3155L168.901 78.3251L135.268 105.552L146.594 119.542ZM165.564 85.3203V142H183.564V85.3203H165.564ZM174.564 133H160.58V151H174.564V133ZM169.58 142V115.438H151.58V142H169.58ZM154.917 108.442L121.284 135.669L132.61 149.659L166.242 122.433L154.917 108.442ZM135.947 142.664V85.9844H117.947V142.664H135.947ZM246.208 85.9844H255.208V76.9844H246.208V85.9844ZM246.208 130.906H237.208V139.906H246.208V130.906ZM254.137 130.906H263.137V121.906H254.137V130.906ZM254.137 153.406V162.406H263.137V153.406H254.137ZM243.044 153.406H234.044V162.406H243.044V153.406ZM243.044 142H252.044V133H243.044V142ZM201.872 142V133H192.872V142H201.872ZM201.872 153.406V162.406H210.872V153.406H201.872ZM190.817 153.406H181.817V162.406H190.817V153.406ZM190.817 130.906V121.906H181.817V130.906H190.817ZM204.372 89.7734L210.736 96.1374L204.372 89.7734ZM213.395 130.906L204.5 129.538L202.905 139.906H213.395V130.906ZM232.223 130.906V139.906H241.223V130.906H232.223ZM232.223 97.0781H241.223V88.0781H232.223V97.0781ZM213.786 125.945L222.783 126.185L222.786 126.065V125.945H213.786ZM237.208 85.9844V130.906H255.208V85.9844H237.208ZM246.208 139.906H254.137V121.906H246.208V139.906ZM245.137 130.906V153.406H263.137V130.906H245.137ZM254.137 144.406H243.044V162.406H254.137V144.406ZM252.044 153.406V142H234.044V153.406H252.044ZM243.044 133H201.872V151H243.044V133ZM192.872 142V153.406H210.872V142H192.872ZM201.872 144.406H190.817V162.406H201.872V144.406ZM199.817 153.406V130.906H181.817V153.406H199.817ZM190.817 139.906H196.13V121.906H190.817V139.906ZM196.13 139.906C199.298 139.906 203.391 138.976 206.391 135.44L192.666 123.794C193.359 122.977 194.193 122.452 194.94 122.169C195.626 121.909 196.087 121.906 196.13 121.906V139.906ZM206.391 135.44C209.145 132.194 209.622 128.265 209.622 125.555H191.622C191.622 125.924 191.582 125.901 191.658 125.617C191.738 125.318 191.988 124.593 192.666 123.794L206.391 135.44ZM209.622 125.555V100.672H191.622V125.555H209.622ZM209.622 100.672C209.622 97.4386 210.445 96.4285 210.736 96.1374L198.008 83.4095C193.299 88.1183 191.622 94.3739 191.622 100.672H209.622ZM210.736 96.1374C211.061 95.8125 212.104 94.9844 215.348 94.9844V76.9844C209.01 76.9844 202.735 78.6823 198.008 83.4095L210.736 96.1374ZM215.348 94.9844H246.208V76.9844H215.348V94.9844ZM213.395 139.906H232.223V121.906H213.395V139.906ZM241.223 130.906V97.0781H223.223V130.906H241.223ZM232.223 88.0781H219.958V106.078H232.223V88.0781ZM219.958 88.0781C216.404 88.0781 212.183 89.0364 208.906 92.3948L221.79 104.965C221.25 105.518 220.665 105.831 220.236 105.98C219.852 106.114 219.708 106.078 219.958 106.078V88.0781ZM208.906 92.3948C205.705 95.6763 204.786 99.8161 204.786 103.328H222.786C222.786 103.061 222.823 103.168 222.708 103.51C222.579 103.892 222.301 104.441 221.79 104.965L208.906 92.3948ZM204.786 103.328V125.945H222.786V103.328H204.786ZM204.789 125.705C204.743 127.425 204.632 128.677 204.5 129.538L222.291 132.275C222.575 130.427 222.724 128.371 222.783 126.185L204.789 125.705ZM299.453 85.9844V76.9844H294.398L291.768 81.3006L299.453 85.9844ZM313.594 85.9844L321.279 90.6683L329.619 76.9844H313.594V85.9844ZM296.523 113.992L288.838 109.308L285.984 113.992L288.838 118.676L296.523 113.992ZM313.594 142V151H329.619L321.279 137.316L313.594 142ZM299.453 142L291.768 146.684L294.398 151H299.453V142ZM284.336 117.195L292.021 112.512L275.336 85.134V117.195H284.336ZM284.336 142V151H293.336V142H284.336ZM270.352 142H261.352V151H270.352V142ZM270.352 85.9844V76.9844H261.352V85.9844H270.352ZM284.336 85.9844H293.336V76.9844H284.336V85.9844ZM284.336 110.789H275.336V142.85L292.021 115.473L284.336 110.789ZM299.453 94.9844H313.594V76.9844H299.453V94.9844ZM305.909 81.3004L288.838 109.308L304.209 118.676L321.279 90.6683L305.909 81.3004ZM288.838 118.676L305.909 146.684L321.279 137.316L304.209 109.308L288.838 118.676ZM313.594 133H299.453V151H313.594V133ZM307.138 137.316L292.021 112.512L276.651 121.879L291.768 146.684L307.138 137.316ZM275.336 117.195V142H293.336V117.195H275.336ZM284.336 133H270.352V151H284.336V133ZM279.352 142V85.9844H261.352V142H279.352ZM270.352 94.9844H284.336V76.9844H270.352V94.9844ZM275.336 85.9844V110.789H293.336V85.9844H275.336ZM292.021 115.473L307.138 90.6681L291.768 81.3006L276.651 106.105L292.021 115.473ZM326.644 85.9844V76.9844H317.644V85.9844H326.644ZM340.628 85.9844H349.628V76.9844H340.628V85.9844ZM340.628 112.547H331.628V131.412L346.291 119.542L340.628 112.547ZM374.261 85.3203H383.261V66.4552L368.598 78.3251L374.261 85.3203ZM374.261 142V151H383.261V142H374.261ZM360.277 142H351.277V151H360.277V142ZM360.277 115.438H369.277V96.5724L354.614 108.442L360.277 115.438ZM326.644 142.664H317.644V161.529L332.307 149.659L326.644 142.664ZM326.644 94.9844H340.628V76.9844H326.644V94.9844ZM331.628 85.9844V112.547H349.628V85.9844H331.628ZM346.291 119.542L379.924 92.3155L368.598 78.3251L334.965 105.552L346.291 119.542ZM365.261 85.3203V142H383.261V85.3203H365.261ZM374.261 133H360.277V151H374.261V133ZM369.277 142V115.438H351.277V142H369.277ZM354.614 108.442L320.981 135.669L332.307 149.659L365.939 122.433L354.614 108.442ZM335.644 142.664V85.9844H317.644V142.664H335.644Z" fill="url(#paint0_radial_5_28)"/>
<defs>
<radialGradient id="paint0_radial_5_28" cx="0" cy="0" r="1" gradientUnits="userSpaceOnUse" gradientTransform="translate(212.5 77.5) rotate(90) scale(94.5 241.5)">
<stop offset="0.353648" stop-color="#B127D8"/>
<stop offset="1" stop-color="#6133E2" stop-opacity="0.64"/>
</radialGradient>
</defs>
</svg>
